<svg width="800" height="800" viewBox="0 0 800 800" xmlns="http://www.w3.org/2000/svg">
  <defs>
    <linearGradient id="bgGrad" x1="0%" y1="0%" x2="100%" y2="100%">
      <stop offset="0%" style="stop-color:#E6F5EF;stop-opacity:1" />
      <stop offset="100%" style="stop-color:#D4EDE3;stop-opacity:1" />
    </linearGradient>
  </defs>
  
  <!-- Background -->
  <rect width="800" height="800" rx="180" fill="url(#bgGrad)"/>
  
  <!-- Hand with connection nodes -->
  <g transform="translate(120, 95) scale(6.5)">
    <!-- Fingers and palm -->
    <path d="M42 88 C20 88 10 70 10 55 L10 38 C10 34 13 31 17 31 C21 31 24 34 24 38 L24 45" 
          stroke="#0C8C5E" stroke-width="5" stroke-linecap="round" fill="none"/>
    <path d="M24 45 L24 22 C24 18 27 15 31 15 C35 15 38 18 38 22 L38 42" 
          stroke="#0C8C5E" stroke-width="5" stroke-linecap="round" fill="none"/>
    <path d="M38 42 L38 18 C38 14 41 11 45 11 C49 11 52 14 52 18 L52 42" 
          stroke="#0C8C5E" stroke-width="5" stroke-linecap="round" fill="none"/>
    <path d="M52 42 L52 22 C52 18 55 15 59 15 C63 15 66 18 66 22 L66 45" 
          stroke="#0C8C5E" stroke-width="5" stroke-linecap="round" fill="none"/>
    <path d="M66 45 L66 35 C66 31 69 28 73 28 C77 28 80 31 80 35 L80 58 C80 75 65 88 48 88" 
          stroke="#0C8C5E" stroke-width="5" stroke-linecap="round" fill="none"/>
    
    <!-- Connection dots (network nodes) -->
    <circle cx="31" cy="11" r="4.5" fill="#E8A817"/>
    <circle cx="45" cy="7" r="4.5" fill="#E8A817"/>
    <circle cx="59" cy="11" r="4.5" fill="#E8A817"/>
    <circle cx="73" cy="24" r="4" fill="#E8A817"/>
    <circle cx="17" cy="27" r="4" fill="#E8A817"/>
    
    <!-- Connection lines -->
    <line x1="17" y1="27" x2="31" y2="11" stroke="#E8A817" stroke-width="1.5" opacity="0.4"/>
    <line x1="31" y1="11" x2="45" y2="7" stroke="#E8A817" stroke-width="1.5" opacity="0.4"/>
    <line x1="45" y1="7" x2="59" y2="11" stroke="#E8A817" stroke-width="1.5" opacity="0.4"/>
    <line x1="59" y1="11" x2="73" y2="24" stroke="#E8A817" stroke-width="1.5" opacity="0.4"/>
  </g>
</svg>